# xmcd
#
# Track frame offsets:
#	150
#	16795
#	37589
#	53789
#	71844
#	94941
#	110835
#	130006
#	144404
#	161806
#	181887
#	198338
#
# Disc length: 2882 seconds
#
# Revision: 3
# Processed by: cddbd v1.5.2PL0 Copyright (c) Steve Scherf et al.
# Submitted via: EasyCDDAExtractor 12.0.4.1
#
DISCID=9f0b400c
DTITLE=แท็กซี่ - เปิดประทุน
DYEAR=2004
DGENRE=Acoustic Rock
TTITLE0=จากคนเลวที่รักเธอ
TTITLE1=คิดถึงฉันไหมเวลาที่เธอ...
TTITLE2=เหลือเธอคนเดียว
TTITLE3=นางฟ้ากับควาย
TTITLE4=Hey Hey
TTITLE5=เธอรักฉันไหม
TTITLE6=ร้องไห้ทำไม
TTITLE7=ก้อนเนื้อที่ยังรักเธอ
TTITLE8=ขอชาติหนึ่ง
TTITLE9=โกรธไม่ลง
TTITLE10=ช่างเถอะคนงาม
TTITLE11=ไม่เอา ไม่ยอม
EXTD=
EXTT0=
EXTT1=
EXTT2=
EXTT3=
EXTT4=
EXTT5=
EXTT6=
EXTT7=
EXTT8=
EXTT9=
EXTT10=
EXTT11=
PLAYORDER=
